#!OML:ASF Y:\EmotionMaleHayes\Project 1\Capture day 1\Session 1\Male1.ASF
:FULLY-SPECIFIED
:DEGREES
576
root 34.4556 16.718 -0.94674 823.964 74.8821 827.503
lowerback 4.62222 -1.07806 -19.4143
upperback 2.44706 -1.9625 -3.06745
thorax 0.631697 -1.0749 7.60743
lowerneck -22.7002 1.94639 2.71802
upperneck 25.2347 2.22196 -0.845564
head 12.1325 1.21866 -0.382402
rclavicle -2.61619e-014 -6.33129e-014
rhumerus -54.0432 -6.23657 -77.7589
rradius 25.9702
rwrist 12.0398
rhand -2.39831 -33.7411
rfingers 7.12502
rthumb 23.2913 -62.3523
lclavicle -2.61619e-014 -6.33129e-014
lhumerus -10.9606 -18.7255 84.2798
lradius 43.3243
lwrist -0.851577
lhand -19.3196 -29.3336
lfingers 7.12502
lthumb 6.99664 0.530751
rfemur -19.1972 -11.819 1.29777
rtibia 5.3066
rfoot -11.9324 3.51249
rtoes 5.56236
lfemur 18.9756 1.62239 -37.6058
ltibia 8.30342
lfoot -18.9427 -1.45356
ltoes -4.87436
577
root 34.6009 16.69 -0.943267 824.472 75.0293 827.795
lowerback 4.45259 -1.10865 -19.224
upperback 2.36178 -1.97672 -2.96971
thorax 0.631186 -1.07997 7.6082
lowerneck -22.7219 1.96023 2.888
upperneck 25.1409 2.22771 -1.02823
head 12.1049 1.21116 -0.479025
rclavicle 6.16543e-015 2.10215e-014
rhumerus -53.994 -6.09405 -77.9723
rradius 26.0616
rwrist 11.9989
rhand -1.85936 -34.0407
rfingers 7.12502
rthumb 23.8083 -62.5854
lclavicle 6.16543e-015 2.10215e-014
lhumerus -11.2318 -18.514 84.4855
lradius 43.4351
lwrist -0.646727
lhand -19.4928 -29.4158
lfingers 7.12502
lthumb 6.82943 0.454023
rfemur -19.5662 -10.8104 1.40057
rtibia 6.07428
rfoot -12.1515 3.06994
rtoes 3.98065
lfemur 19.0861 1.35995 -37.4417
ltibia 8.75405
lfoot -19.3755 -1.34688
ltoes -7.71279
578
root 34.7498 16.6635 -0.936839 824.741 74.9979 827.844
lowerback 4.31193 -1.13375 -19.2558
upperback 2.23367 -2.00085 -2.91211
thorax 0.579666 -1.08294 7.68683
lowerneck -22.6406 1.98222 2.95102
upperneck 25.027 2.27453 -1.16124
head 12.0481 1.21931 -0.532672
rclavicle 4.65902e-016 -3.3048e-015
rhumerus -53.9204 -6.01683 -78.0762
rradius 26.1092
rwrist 12.0223
rhand -1.41428 -33.9106
rfingers 7.12502
rthumb 24.2351 -62.3991
lclavicle 4.65902e-016 -3.3048e-015
lhumerus -11.7174 -18.2248 84.7612
lradius 43.5591
lwrist -0.577743
lhand -19.8193 -29.5904
lfingers 7.12502
lthumb 6.51428 0.289396
rfemur -19.8221 -9.19393 1.09425
rtibia 6.85535
rfoot -11.7714 2.29283
rtoes 7.02048
lfemur 19.1694 1.08079 -37.494
ltibia 9.20088
lfoot -19.6746 -1.16024
ltoes -11.5964
579
root 34.9058 16.6337 -0.930786 825.044 75.0671 828.042
lowerback 4.18459 -1.11275 -19.1078
upperback 2.18521 -1.95036 -2.85365
thorax 0.579239 -1.05678 7.66698
lowerneck -22.7288 1.9261 2.84979
upperneck 24.9893 2.22536 -1.1607
head 12.0479 1.18601 -0.52348
rclavicle 5.43241e-015 -6.18842e-014
rhumerus -53.8248 -6.12253 -78.0781
rradius 26.139
rwrist 12.3201
rhand -1.29079 -33.4957
rfingers 7.12502
rthumb 24.3535 -61.9684
lclavicle 5.43241e-015 -6.18842e-014
lhumerus -12.1625 -17.9695 85.0634
lradius 43.6522
lwrist -0.550956
lhand -20.0294 -29.7753
lfingers 7.12502
lthumb 6.3114 0.110705
rfemur -20.0451 -8.31271 1.18302
rtibia 7.80744
rfoot -10.7297 1.68057
rtoes 4.24806
lfemur 19.4164 0.836831 -37.4169
ltibia 9.62459
lfoot -19.9511 -1.12025
ltoes -13.0789
580
root 35.0623 16.6017 -0.920855 825.014 75.1669 828.016
lowerback 4.15254 -1.05736 -19.0032
upperback 2.16314 -1.87437 -2.78461
thorax 0.549471 -1.01733 7.68393
lowerneck -23.0789 1.72221 2.7181
upperneck 25.0503 1.93341 -1.04618
head 12.1305 1.05537 -0.505868
rclavicle 2.24052e-014 6.06169e-014
rhumerus -53.583 -6.11207 -78.2163
rradius 26.0585
rwrist 12.4471
rhand -1.18631 -33.4109
rfingers 7.12502
rthumb 24.4536 -61.8701
lclavicle 2.24052e-014 6.06169e-014
lhumerus -12.6256 -17.6607 85.3521
lradius 43.7222
lwrist -0.506459
lhand -20.1156 -29.796
lfingers 7.12502
lthumb 6.2282 0.092458
rfemur -20.0913 -6.59135 1.13574
rtibia 9.40211
rfoot -10.5809 0.652332
rtoes 3.70811
lfemur 19.7301 0.676961 -37.2755
ltibia 10.189
lfoot -20.2561 -1.15691
ltoes -12.7492
581
root 35.2255 16.5732 -0.910899 824.766 75.0211 827.782
lowerback 4.13717 -1.02677 -19.1723
upperback 2.08528 -1.84681 -2.77913
thorax 0.472804 -0.993849 7.78206
lowerneck -22.9414 1.78299 2.79455
upperneck 24.8976 2.01065 -1.10934
head 12.0474 1.08793 -0.53044
rclavicle -1.75249e-014 -7.27552e-014
rhumerus -53.3346 -5.94479 -78.4704
rradius 25.9745
rwrist 12.3441
rhand -0.927941 -33.6138
rfingers 7.12502
rthumb 24.7013 -62.0392
lclavicle -1.75249e-014 -7.27552e-014
lhumerus -13.2997 -17.3204 85.6369
lradius 43.7995
lwrist -0.443267
lhand -20.1675 -29.7349
lfingers 7.12502
lthumb 6.17812 0.15506
rfemur -20.1208 -5.07004 0.856719
rtibia 11.0579
rfoot -10.5899 -0.462811
rtoes 5.93778
lfemur 20.038 0.47476 -37.5044
ltibia 10.8341
lfoot -20.5423 -0.867328
ltoes -14.4274
582
root 35.3956 16.5504 -0.907698 824.995 74.9672 828.03
lowerback 4.0327 -1.03434 -19.0953
upperback 2.05428 -1.83617 -2.76472
thorax 0.491894 -0.988879 7.75358
lowerneck -22.9574 1.82445 2.72798
upperneck 24.7806 2.06726 -1.03864
head 12.0045 1.11444 -0.483405
rclavicle 6.65152e-015 -1.64494e-014
rhumerus -53.055 -5.75761 -78.7478
rradius 26.0417
rwrist 12.3081
rhand -0.517968 -34.0356
rfingers 7.12502
rthumb 25.0942 -62.4067
lclavicle 6.65152e-015 -1.64494e-014
lhumerus -13.9923 -16.8439 85.9567
lradius 43.8385
lwrist -0.512149
lhand -20.1603 -29.7944
lfingers 7.12502
lthumb 6.18504 0.0952724
rfemur -20.0616 -4.31874 0.875652
rtibia 12.7092
rfoot -10.4566 -1.16951
rtoes 7.8189
lfemur 20.4234 0.150335 -37.7312
ltibia 11.3981
lfoot -20.8583 -0.404618
ltoes -15.987
583
root 35.5616 16.531 -0.90549 825.143 75.1367 828.232
lowerback 3.97904 -1.02377 -18.7747
upperback 2.01154 -1.81277 -2.69767
thorax 0.456384 -0.973029 7.65198
lowerneck -22.8613 1.83288 2.59959
upperneck 24.5564 2.09427 -0.946404
head 11.8964 1.12451 -0.424229
rclavicle -1.10916e-014 -1.83876e-014
rhumerus -52.7569 -5.5387 -79.0171
rradius 26.1219
rwrist 12.427
rhand -0.330817 -34.256
rfingers 7.12502
rthumb 25.2735 -62.6019
lclavicle -1.10916e-014 -1.83876e-014
lhumerus -14.7475 -16.3435 86.3078
lradius 43.8285
lwrist -0.557445
lhand -20.399 -29.7657
lfingers 7.12502
lthumb 5.95458 0.130626
rfemur -19.927 -3.56391 1.1734
rtibia 13.9939
rfoot -10.2571 -1.61556
rtoes 10.5908
lfemur 20.8133 -0.17808 -37.7308
ltibia 11.9956
lfoot -21.1785 -0.19159
ltoes -14.9666
584
root 35.7295 16.5151 -0.899634 824.887 75.1931 827.991
lowerback 3.8879 -1.01205 -18.6686
upperback 1.88758 -1.79564 -2.64834
thorax 0.363958 -0.951562 7.6477
lowerneck -22.6327 1.8368 2.5636
upperneck 24.3807 2.12037 -0.959324
head 11.7844 1.13124 -0.420773
rclavicle 2.38231e-015 7.7526e-015
rhumerus -52.6028 -5.41464 -79.1454
rradius 26.231
rwrist 12.9128
rhand -0.573724 -33.4961
rfingers 7.12502
rthumb 25.0407 -61.8747
lclavicle 2.38231e-015 7.7526e-015
lhumerus -15.7201 -16.0191 86.6731
lradius 43.8242
lwrist -0.229379
lhand -20.8901 -29.5807
lfingers 7.12502
lthumb 5.48044 0.328477
rfemur -19.7885 -2.97532 1.33418
rtibia 14.651
rfoot -9.47054 -2.03511
rtoes 14.3211
lfemur 21.082 -0.450648 -37.8614
ltibia 12.7586
lfoot -21.4096 0.0908272
ltoes -15.1094
